<svg width="48" height="48" viewBox="0 0 48 48" fill="none" xmlns="http://www.w3.org/2000/svg">
<path d="M46.9213 16.8674C45.8899 13.5641 44.1101 10.4495 41.764 7.86744C38.4 4.17306 34.0584 1.65171 29.2045 0.573057C25.773 -0.18874 22.2337 -0.18874 18.8022 0.573057C13.9483 1.65171 9.60674 4.1798 6.2427 7.87418C3.89663 10.4495 2.11011 13.5641 1.07865 16.8674C0.364045 19.1663 0 21.5663 0 24C0 26.5011 0.391011 28.9753 1.15281 31.3551C2.21124 34.6315 4.00449 37.7056 6.35056 40.2472C9.71461 43.9011 14.0427 46.3888 18.8629 47.4405C20.5551 47.8113 22.2809 48 24 48C25.7191 48 27.4449 47.8113 29.1371 47.4405C33.9573 46.3888 38.2854 43.9011 41.6494 40.2472C43.9955 37.7056 45.7888 34.6315 46.8472 31.3551C47.6157 28.9753 48 26.5011 48 24C48 21.5663 47.636 19.1663 46.9213 16.8674ZM44.4404 30.6742C43.4831 33.6068 41.9124 36.2629 39.8764 38.4877C36.9101 41.7304 32.9663 44.0629 28.5169 45.0202C27.0607 45.3304 25.5506 45.4989 24.0067 45.4989C22.4562 45.4989 20.9528 45.3304 19.4966 45.0202C15.0472 44.0629 11.1034 41.7371 8.13708 38.4877C6.10112 36.2629 4.53034 33.6 3.57303 30.6742C2.87191 28.5708 2.49438 26.3259 2.49438 24C2.49438 21.7483 2.84494 19.5776 3.49213 17.5349C4.42921 14.5686 5.99326 11.8787 8.02921 9.62025C10.9888 6.33036 14.9461 3.96407 19.4225 2.99328C20.8989 2.66969 22.4292 2.49441 24 2.49441C25.5708 2.49441 27.1011 2.66969 28.5775 2.98654C33.0472 3.96407 37.0112 6.33036 39.9708 9.61351C42.0067 11.8719 43.5708 14.5618 44.5079 17.5281C45.1551 19.5708 45.5056 21.7416 45.5056 23.9933C45.5056 26.3259 45.1281 28.5708 44.4404 30.6742Z" fill="white"/>
<path d="M22.1328 11.1236C21.344 9.16852 20.6092 7.17975 19.9552 5.1438C15.8968 6.01346 12.3103 8.16402 9.64062 11.1505C11.0698 12.7348 12.4316 14.3663 13.726 16.0314C15.7418 13.4292 18.7283 11.6157 22.1328 11.1236Z" fill="white"/>
<path d="M25.793 36.8899C26.5885 38.845 27.33 40.8405 27.9907 42.8697C32.0222 42.0203 35.602 39.9034 38.2784 36.9573C36.8491 35.3663 35.4941 33.7349 34.1997 32.0697C32.1638 34.6382 29.184 36.418 25.793 36.8899Z" fill="white"/>
<path d="M13.8072 32.0697C12.5128 33.7349 11.1577 35.3663 9.72852 36.9506C12.4049 39.8967 15.978 42.0068 20.0162 42.863C20.6768 40.827 21.4184 38.8382 22.2139 36.8832C18.8162 36.418 15.8431 34.6382 13.8072 32.0697Z" fill="white"/>
<path d="M34.2817 16.0314C35.5829 14.3663 36.9379 12.7348 38.3671 11.1505C35.6975 8.16402 32.111 6.01346 28.0525 5.1438C27.3919 7.17301 26.6638 9.16178 25.875 11.1236C29.2795 11.6157 32.2593 13.4292 34.2817 16.0314Z" fill="white"/>
<path d="M10.9884 24C10.9884 22.3214 11.312 20.7169 11.8918 19.2405C9.8019 18.9506 7.71201 18.5865 5.62886 18.1416C5.04235 19.9888 4.71875 21.9573 4.71875 23.9933C4.71875 26.1034 5.06257 28.1394 5.69628 30.0405C7.78617 29.5955 9.8828 29.2382 11.9727 28.9483C11.339 27.4247 10.9884 25.7528 10.9884 24Z" fill="white"/>
<path d="M36.1082 19.2405C36.688 20.7169 37.0116 22.3213 37.0116 24C37.0116 25.7528 36.6611 27.4247 36.0273 28.9551C38.124 29.2449 40.2139 29.6022 42.3037 30.0472C42.9375 28.1461 43.2813 26.1101 43.2813 24C43.2813 21.9573 42.9577 19.9955 42.3712 18.1483C40.288 18.5933 38.1981 18.9506 36.1082 19.2405Z" fill="white"/>
<path d="M34.6852 24C34.6852 18.1078 29.892 13.3146 23.9998 13.3146C18.1077 13.3146 13.3145 18.1078 13.3145 24C13.3145 29.8921 18.1077 34.6854 23.9998 34.6854C29.892 34.6854 34.6852 29.8921 34.6852 24Z" fill="white"/>
</svg>
