<svg width="50" height="50" viewBox="0 0 50 50" fill="none" xmlns="http://www.w3.org/2000/svg">
<path d="M6.24999 6.25H43.75C44.3025 6.25 44.8324 6.46949 45.2231 6.86019C45.6138 7.25089 45.8333 7.7808 45.8333 8.33333V41.6667C45.8333 42.2192 45.6138 42.7491 45.2231 43.1398C44.8324 43.5305 44.3025 43.75 43.75 43.75H6.24999C5.69746 43.75 5.16755 43.5305 4.77685 43.1398C4.38615 42.7491 4.16666 42.2192 4.16666 41.6667V8.33333C4.16666 7.7808 4.38615 7.25089 4.77685 6.86019C5.16755 6.46949 5.69746 6.25 6.24999 6.25ZM30.8187 20.4021L25.7146 25.5062L21.2958 21.0854L12.4562 29.925L15.4021 32.8708L21.2958 26.9792L25.7146 31.3979L33.7646 23.3479L37.5 27.0833V16.6667H27.0833L30.8187 20.4021Z" fill="white"/>
</svg>
