<svg width="50" height="50" viewBox="0 0 50 50" fill="none" xmlns="http://www.w3.org/2000/svg">
<path d="M17.7042 41.6667H32.2958C30.9176 44.9632 28.2965 47.5842 25 48.9625C21.7035 47.5842 19.0824 44.9632 17.7042 41.6667ZM37.5 30.8438L41.6667 35.5687V39.5833H8.33333V35.5687L12.5 30.8438V18.75C12.5 11.4937 17.7167 5.31875 25 3.03125C32.2833 5.31875 37.5 11.4937 37.5 18.75V30.8438ZM25 22.9167C26.1051 22.9167 27.1649 22.4777 27.9463 21.6963C28.7277 20.9149 29.1667 19.8551 29.1667 18.75C29.1667 17.6449 28.7277 16.5851 27.9463 15.8037C27.1649 15.0223 26.1051 14.5833 25 14.5833C23.8949 14.5833 22.8351 15.0223 22.0537 15.8037C21.2723 16.5851 20.8333 17.6449 20.8333 18.75C20.8333 19.8551 21.2723 20.9149 22.0537 21.6963C22.8351 22.4777 23.8949 22.9167 25 22.9167Z" fill="white"/>
</svg>
