<svg width="50" height="50" viewBox="0 0 50 50" fill="none" xmlns="http://www.w3.org/2000/svg">
<path d="M25 4.16663C36.5062 4.16663 45.8333 13.4937 45.8333 25C45.8333 36.5062 36.5062 45.8333 25 45.8333C13.4937 45.8333 4.16666 36.5062 4.16666 25C4.16666 13.4937 13.4937 4.16663 25 4.16663ZM25 22.9166C20.8333 22.9166 17.3604 23.6104 14.5833 25C14.5833 27.7626 15.6808 30.4122 17.6343 32.3657C19.5878 34.3192 22.2373 35.4166 25 35.4166C27.7627 35.4166 30.4122 34.3192 32.3657 32.3657C34.3192 30.4122 35.4167 27.7626 35.4167 25C32.6396 23.6104 29.1667 22.9166 25 22.9166ZM17.7083 14.5833C15.3083 14.5833 13.2875 16.2083 12.6833 18.4166L12.6042 18.75H22.8125C22.5724 17.5735 21.9331 16.5162 21.003 15.7569C20.0729 14.9977 18.909 14.583 17.7083 14.5833ZM32.2917 14.5833C29.8917 14.5833 27.8708 16.2083 27.2667 18.4166L27.1875 18.75H37.3958C37.1557 17.5735 36.5165 16.5162 35.5863 15.7569C34.6562 14.9977 33.4923 14.583 32.2917 14.5833Z" fill="white"/>
</svg>
