<svg width="50" height="50" viewBox="0 0 50 50" fill="none" xmlns="http://www.w3.org/2000/svg">
<path d="M4.16665 18.75H10.4166V43.75H4.16665C3.61411 43.75 3.08421 43.5305 2.69351 43.1398C2.30281 42.7491 2.08331 42.2192 2.08331 41.6667V20.8333C2.08331 20.2808 2.30281 19.7509 2.69351 19.3602C3.08421 18.9695 3.61411 18.75 4.16665 18.75ZM15.1937 16.0562L28.5271 2.7229C28.7043 2.54518 28.9397 2.43742 29.19 2.41943C29.4404 2.40144 29.6888 2.47443 29.8896 2.62499L31.6666 3.95832C32.1602 4.32883 32.533 4.83718 32.738 5.41927C32.943 6.00136 32.9711 6.63112 32.8187 7.22916L30.4166 16.6667H43.75C44.8551 16.6667 45.9149 17.1056 46.6963 17.887C47.4777 18.6684 47.9166 19.7283 47.9166 20.8333V25.2167C47.9172 25.7612 47.811 26.3005 47.6041 26.8042L41.1562 42.4604C40.9989 42.8421 40.7318 43.1685 40.3887 43.3981C40.0456 43.6277 39.642 43.7502 39.2291 43.75H16.6666C16.1141 43.75 15.5842 43.5305 15.1935 43.1398C14.8028 42.7491 14.5833 42.2192 14.5833 41.6667V17.5292C14.5834 16.9767 14.803 16.4468 15.1937 16.0562Z" fill="white"/>
</svg>
