<svg width="50" height="51" viewBox="0 0 50 51" fill="none" xmlns="http://www.w3.org/2000/svg">
<g clip-path="url(#clip0_965_1710)">
<path d="M48.6997 5.62734C47.5192 4.09326 45.6708 3.2283 43.7412 3.2283H41.5741C41.6025 2.60406 41.6258 2.22054 41.64 1.7034C41.6674 0.77112 40.9224 0 39.9946 0H10.0225C9.0937 0 8.34967 0.77112 8.37606 1.7034C8.39129 2.21952 8.41362 2.60304 8.44204 3.2283H6.27391C4.34431 3.2283 2.49693 4.09326 1.31644 5.62734C0.136957 7.16142 -0.276165 9.07902 0.183649 10.9599L0.247597 11.1965C2.32234 19.3076 8.26237 25.1777 14.3719 25.1777H14.3729C14.7201 25.1777 14.8419 25.1552 15.186 25.1175C16.8202 27.2595 18.8371 28.8701 20.4439 29.8115V32.3462C20.4439 33.0225 20.989 33.5702 21.662 33.5702H22.3715V39.0578H21.662C20.989 39.0578 20.4439 39.6056 20.4439 40.2818V43.5764H19.1436C18.4707 43.5764 17.9256 44.1242 17.9256 44.8004V47.1271H15.8315C15.1616 47.1271 14.6135 47.6779 14.6135 48.3511V51H34.5418V48.3511C34.5418 47.6748 33.9968 47.1271 33.3238 47.1271H31.2632V44.8004C31.2632 44.1242 30.7182 43.5764 30.0452 43.5764H28.7967V40.2818C28.7967 39.6056 28.2516 39.0578 27.5786 39.0578H26.8691V33.5702H27.5786C28.2516 33.5702 28.7967 33.0225 28.7967 32.3462V29.8115C31.045 28.8701 32.8092 27.2605 34.4444 25.1185C34.7885 25.1563 35.2179 25.1797 35.565 25.1797C41.6745 25.1797 47.6562 19.2923 49.7299 11.1823C49.7523 11.0966 49.7939 11.0466 49.8152 10.9609C50.272 9.07902 49.8791 7.1604 48.6997 5.62734ZM2.90701 10.4938L2.85017 10.2653C2.5893 9.19836 2.82885 8.02332 3.50588 7.1553C4.18901 6.28014 5.21623 5.712 6.32263 5.712H8.66433C9.34644 12.24 11.1126 17.9704 13.5974 22.3074C9.05411 21.7954 4.55138 16.9259 2.90701 10.4938ZM47.1669 10.2663C47.1487 10.3408 47.1304 10.4152 47.1101 10.4917C45.4647 16.9259 40.963 21.7954 36.4187 22.3074C38.9035 17.9704 40.6697 12.24 41.3518 5.712H43.6935C44.8009 5.712 45.8271 6.28014 46.5112 7.1553C47.1893 8.02332 47.4278 9.19938 47.1669 10.2663Z" fill="white"/>
</g>
<defs>
<clipPath id="clip0_965_1710">
<rect width="50" height="51" fill="white"/>
</clipPath>
</defs>
</svg>
